<?xml version="1.0" encoding="UTF-8" standalone="no"?>
<!DOCTYPE svg PUBLIC "-//W3C//DTD SVG 1.1//EN" "http://www.w3.org/Graphics/SVG/1.1/DTD/svg11.dtd">
<svg xmlns="http://www.w3.org/2000/svg" version="1.1" viewBox="0.00 0.00 1200.00 432.00">
<g fill="#191919">
<path d="
  M 118.52 33.22
  Q 122.34 35.23 126.45 36.63
  Q 130.51 38.03 132.54 39.21
  Q 135.73 41.07 137.79 43.23
  Q 141.77 47.39 145.21 51.02
  A 4.40 4.39 -82.8 0 1 145.82 51.81
  Q 151.32 60.81 154.21 70.82
  A 3.01 2.81 -57.0 0 1 154.33 71.50
  C 155.23 84.39 157.35 98.48 157.93 112.62
  C 159.08 140.32 158.58 165.93 155.13 190.94
  Q 154.28 197.11 152.36 201.61
  Q 149.48 208.38 146.59 214.60
  Q 143.84 220.51 141.52 223.00
  Q 133.90 231.21 122.28 234.27
  Q 107.39 238.19 91.60 236.83
  A 0.94 0.93 2.5 0 0 90.58 237.76
  L 90.58 345.73
  A 1.06 1.06 0.0 0 1 89.50 346.79
  Q 79.48 346.63 70.00 347.12
  Q 66.53 347.30 53.55 346.77
  L 47.57 346.44
  A 0.81 0.81 0.0 0 1 46.80 345.63
  L 46.80 32.46
  A 0.69 0.68 -0.0 0 1 47.49 31.78
  Q 80.05 31.71 107.27 31.84
  Q 112.62 31.87 118.52 33.22
  Z
  M 97.60 198.29
  C 107.91 199.10 110.36 189.51 110.94 181.44
  C 112.74 156.44 112.61 130.52 112.07 104.06
  C 111.86 93.68 110.87 87.12 109.24 78.85
  Q 109.50 77.45 107.66 75.34
  C 102.66 69.60 98.24 69.86 91.47 69.63
  A 0.91 0.90 0.9 0 0 90.53 70.53
  L 90.53 197.14
  A 1.07 1.07 0.0 0 0 91.58 198.21
  L 97.60 198.29
  Z"
/>
<path d="
  M 247.83 38.53
  C 248.38 42.00 248.48 45.86 248.96 48.98
  Q 251.25 63.66 251.90 78.49
  C 252.25 86.51 253.34 92.69 254.53 100.71
  C 255.68 108.41 255.85 117.15 256.70 125.06
  Q 259.97 155.61 261.97 175.78
  C 263.42 190.32 265.71 206.98 266.83 221.08
  Q 267.86 233.99 270.43 255.78
  Q 271.05 261.04 275.28 302.93
  C 276.32 313.20 278.25 325.05 278.85 336.66
  A 7.31 7.30 -53.1 0 0 279.05 338.08
  Q 280.03 342.17 279.88 346.34
  A 1.07 1.07 0.0 0 1 278.81 347.37
  Q 262.90 347.35 247.42 347.39
  Q 243.01 347.40 238.88 346.84
  L 236.71 346.56
  L 235.52 346.63
  L 235.04 346.63
  L 234.04 346.60
  Q 232.66 346.58 232.53 345.23
  Q 230.00 317.46 227.83 289.45
  L 227.14 283.17
  A 0.92 0.91 -3.2 0 0 226.23 282.36
  L 196.90 282.36
  A 0.89 0.89 0.0 0 0 196.01 283.17
  L 190.73 345.83
  A 0.75 0.73 -3.1 0 1 190.11 346.50
  Q 187.02 347.04 185.72 347.07
  Q 172.86 347.41 160.76 346.66
  L 154.67 346.53
  A 0.76 0.75 -86.5 0 1 153.93 345.69
  L 186.82 32.54
  A 0.90 0.90 0.0 0 1 187.71 31.74
  L 245.92 31.74
  A 1.14 1.14 0.0 0 1 247.05 32.73
  L 247.83 38.53
  Z
  M 207.72 245.85
  L 223.87 245.86
  A 0.82 0.81 87.7 0 0 224.68 244.98
  Q 219.99 184.39 215.80 123.53
  Q 215.65 121.40 215.01 120.25
  L 213.52 93.22
  A 1.30 1.27 -18.4 0 0 211.52 92.25
  Q 211.30 92.40 211.20 93.49
  Q 210.65 99.64 209.46 113.54
  C 208.98 119.10 209.23 123.80 208.62 127.64
  C 207.24 136.22 207.17 145.41 206.03 153.08
  Q 205.69 155.30 205.67 157.95
  C 205.64 162.30 205.69 165.31 205.11 170.13
  Q 203.13 186.64 202.25 204.45
  C 202.01 209.09 202.37 213.67 201.77 218.17
  Q 200.81 225.46 199.78 232.73
  Q 199.09 237.55 198.87 243.63
  A 1.68 1.68 0.0 0 0 200.02 245.29
  Q 204.38 246.73 207.72 245.85
  Z"
/>
<path d="
  M 380.62 38.63
  Q 379.21 54.39 380.49 69.85
  A 1.37 1.37 0.0 0 1 379.04 71.33
  Q 363.52 70.34 348.27 70.77
  A 0.34 0.34 0.0 0 0 347.94 71.11
  L 347.94 345.74
  A 0.97 0.97 0.0 0 1 346.98 346.71
  Q 336.03 346.87 318.17 347.46
  Q 315.20 347.56 310.48 346.86
  L 304.14 346.55
  A 0.82 0.82 0.0 0 1 303.36 345.73
  L 303.41 77.47
  Q 302.75 74.91 303.07 72.27
  A 1.07 1.07 0.0 0 0 302.03 71.07
  L 278.05 70.61
  L 271.96 70.58
  A 0.74 0.73 90.0 0 1 271.23 69.84
  L 271.23 32.63
  A 0.92 0.91 -90.0 0 1 272.14 31.71
  L 378.97 31.71
  A 0.97 0.96 5.8 0 1 379.92 32.87
  Q 379.24 36.20 380.62 38.63
  Z"
/>
<path d="
  M 437.03 38.79
  L 436.77 165.43
  A 0.92 0.91 -88.0 0 0 437.62 166.35
  L 444.80 166.86
  L 457.56 166.84
  A 1.06 1.05 -90.0 0 0 458.61 165.78
  L 458.61 32.42
  A 0.69 0.68 0.0 0 1 459.30 31.74
  L 501.68 31.74
  A 1.19 1.18 -85.8 0 1 502.85 33.10
  Q 502.39 36.11 503.61 38.67
  L 503.38 345.96
  A 0.68 0.68 0.0 0 1 502.69 346.64
  Q 487.84 346.45 472.22 347.35
  C 470.26 347.46 467.76 347.14 465.72 346.85
  L 459.53 346.58
  A 1.01 1.01 0.0 0 1 458.56 345.57
  L 458.53 212.64
  Q 459.22 210.64 458.38 206.67
  A 1.72 1.72 0.0 0 0 456.70 205.31
  L 437.84 205.31
  A 1.18 1.17 -0.0 0 0 436.66 206.48
  L 436.66 345.88
  A 0.92 0.91 -88.0 0 1 435.68 346.80
  Q 420.36 345.72 405.25 347.39
  Q 402.60 347.68 399.35 346.84
  Q 398.14 346.43 396.71 346.63
  L 393.28 346.57
  Q 392.82 346.59 392.51 346.24
  Q 392.28 345.97 392.28 345.43
  Q 392.35 196.35 392.38 32.34
  A 0.60 0.59 -90.0 0 1 392.97 31.74
  L 435.38 31.74
  A 0.72 0.71 3.5 0 1 436.09 32.54
  Q 435.63 36.13 437.03 38.79
  Z"
/>
<path d="
  M 609.19 38.41
  L 608.81 69.68
  A 1.30 1.29 0.2 0 1 607.51 70.96
  L 569.48 70.96
  A 0.63 0.63 0.0 0 0 568.85 71.61
  Q 568.98 74.97 568.59 79.37
  C 568.19 83.91 568.61 90.73 568.66 94.10
  Q 568.81 105.97 568.91 172.69
  A 1.18 1.17 -4.0 0 0 570.25 173.85
  Q 572.90 173.47 576.03 174.29
  L 603.88 174.18
  A 1.02 1.02 0.0 0 1 604.91 175.21
  L 604.87 180.35
  L 605.36 184.78
  A 2.56 1.99 81.9 0 1 605.38 185.14
  L 605.26 211.74
  A 1.66 1.66 0.0 0 1 603.60 213.39
  L 569.81 213.39
  A 0.86 0.86 0.0 0 0 568.95 214.28
  C 569.11 219.00 568.41 223.64 568.64 228.06
  Q 569.07 236.46 568.80 254.01
  Q 568.69 261.21 568.80 279.98
  Q 568.99 309.41 568.85 345.58
  A 1.19 1.18 -0.2 0 1 567.67 346.76
  L 531.57 346.87
  L 525.15 346.31
  A 0.74 0.72 2.6 0 1 524.48 345.59
  L 524.48 32.51
  A 0.77 0.76 -90.0 0 1 525.24 31.74
  L 607.97 31.74
  A 0.67 0.66 87.1 0 1 608.63 32.34
  L 609.19 38.41
  Z"
/>
<path d="
  M 732.19 38.51
  Q 733.40 42.91 734.14 51.63
  Q 734.42 54.96 736.42 63.91
  C 738.17 71.73 739.11 78.73 739.66 85.08
  C 740.32 92.59 743.25 102.67 744.01 107.75
  Q 745.38 116.98 746.26 125.06
  Q 746.75 129.58 749.55 141.41
  Q 751.03 147.69 751.08 150.76
  C 751.18 156.99 751.98 162.96 753.89 170.82
  Q 755.77 178.53 756.32 187.70
  Q 756.53 191.12 759.54 202.17
  A 19.92 19.73 34.4 0 1 760.10 205.09
  Q 761.43 216.20 763.42 226.04
  Q 764.03 229.05 765.24 231.12
  A 1.00 1.00 0.0 0 0 766.71 231.42
  Q 766.72 231.41 766.87 231.21
  A 0.42 0.38 65.1 0 0 766.94 230.98
  L 765.26 203.32
  Q 763.69 171.89 762.44 140.52
  Q 761.17 108.61 761.17 86.47
  Q 761.18 64.51 761.25 32.37
  A 0.64 0.63 90.0 0 1 761.88 31.73
  L 798.72 31.73
  A 0.89 0.89 0.0 0 1 799.60 32.76
  Q 799.05 35.96 800.27 38.68
  L 799.72 344.85
  A 1.81 1.80 88.7 0 1 798.00 346.66
  Q 786.95 347.17 769.56 347.32
  Q 767.97 347.33 764.75 346.83
  Q 763.13 346.24 760.81 346.53
  A 1.50 1.49 81.4 0 1 759.16 345.31
  L 729.07 177.00
  L 724.21 153.47
  A 2.64 2.64 0.0 0 0 722.58 151.54
  L 722.23 151.41
  A 1.17 1.17 0.0 0 0 720.64 152.59
  Q 721.80 166.94 721.65 179.37
  C 721.57 186.04 722.96 191.66 722.82 197.86
  C 722.58 208.04 724.02 221.02 724.14 228.68
  C 724.33 241.25 725.89 257.67 725.83 267.75
  Q 725.61 302.93 725.85 339.00
  Q 725.87 342.28 725.53 345.75
  A 0.99 0.98 2.9 0 1 724.55 346.63
  C 717.91 346.58 715.09 346.41 709.04 346.98
  Q 703.36 347.53 697.51 347.35
  Q 696.69 347.32 695.56 346.77
  L 695.00 346.63
  L 692.77 346.64
  L 692.04 346.64
  L 691.05 346.59
  Q 689.31 346.79 688.72 345.84
  A 0.31 0.23 37.0 0 1 688.68 345.70
  L 688.80 32.29
  A 0.55 0.54 -90.0 0 1 689.34 31.74
  L 729.69 31.74
  A 1.43 1.43 0.0 0 1 731.09 32.89
  L 732.19 38.51
  Z"
/>
<path d="
  M 921.81 54.94
  Q 923.05 70.70 927.66 85.38
  A 8.80 8.54 34.1 0 1 928.01 87.07
  C 928.73 93.93 929.80 101.01 929.83 108.01
  Q 929.87 116.69 930.09 120.50
  Q 931.63 147.05 931.52 175.25
  Q 931.39 207.06 930.81 240.00
  C 930.69 246.35 930.09 254.91 929.92 263.34
  Q 929.46 286.32 924.14 308.63
  C 921.90 318.04 916.54 326.28 910.25 333.53
  Q 905.45 339.06 900.12 341.60
  Q 890.81 346.04 880.99 346.22
  Q 857.90 346.65 840.99 347.35
  Q 832.75 347.69 827.84 346.80
  L 822.22 346.66
  A 1.29 1.28 -89.3 0 1 820.97 345.37
  L 820.97 32.10
  A 0.27 0.27 0.0 0 1 821.23 31.83
  Q 856.88 31.67 878.75 31.81
  C 887.77 31.86 897.37 34.17 905.09 39.13
  Q 907.72 40.82 912.16 45.16
  Q 912.72 45.71 918.77 51.72
  Q 920.49 53.43 921.81 54.94
  Z
  M 872.24 308.13
  C 880.20 306.57 882.18 300.21 883.15 293.62
  Q 884.53 284.23 884.94 273.25
  Q 887.87 194.66 885.34 109.25
  Q 884.99 97.57 883.72 87.02
  Q 883.17 82.42 881.04 77.51
  Q 875.24 69.20 865.08 69.42
  A 0.99 0.99 0.0 0 0 864.11 70.48
  C 864.33 73.72 864.75 77.43 864.68 80.92
  Q 864.12 106.46 864.28 139.81
  C 864.52 190.47 864.26 211.63 864.36 265.29
  Q 864.39 285.08 863.92 306.37
  A 1.75 1.74 -82.0 0 0 865.22 308.10
  Q 868.71 309.03 872.24 308.13
  Z"
/>
<path d="
  M 1029.12 38.61
  L 1028.74 69.26
  A 1.58 1.57 -89.6 0 1 1027.17 70.82
  L 989.69 70.82
  A 0.78 0.78 0.0 0 0 988.91 71.60
  L 988.91 168.50
  A 1.13 1.12 -1.9 0 0 990.11 169.62
  Q 993.28 169.39 996.36 170.18
  L 1021.87 170.11
  A 1.00 1.00 0.0 0 1 1022.88 171.11
  L 1022.91 176.21
  Q 1022.54 176.74 1022.56 177.07
  Q 1023.20 191.78 1022.97 207.93
  A 1.48 1.48 0.0 0 1 1021.49 209.39
  L 989.99 209.39
  A 0.96 0.96 0.0 0 0 989.03 210.35
  L 989.03 306.26
  A 1.09 1.08 -88.3 0 0 990.05 307.35
  L 996.25 307.75
  L 1027.56 307.85
  A 1.31 1.31 0.0 0 1 1028.87 309.09
  L 1029.13 313.58
  L 1029.59 345.83
  A 1.12 1.11 -0.3 0 1 1028.47 346.95
  L 952.40 346.76
  L 946.66 346.61
  A 1.11 1.11 0.0 0 1 945.58 345.49
  L 945.60 290.24
  L 945.63 283.53
  L 945.62 258.04
  L 945.60 256.96
  L 945.63 32.34
  A 0.57 0.57 0.0 0 1 946.20 31.77
  L 1027.72 31.77
  A 0.93 0.91 -87.7 0 1 1028.63 32.77
  Q 1028.37 35.74 1029.12 38.61
  Z"
/>
<path d="
  M 1132.34 39.31
  Q 1137.17 46.14 1143.49 51.29
  Q 1146.88 54.04 1148.68 58.08
  C 1150.23 61.54 1151.92 66.35 1152.16 70.47
  Q 1152.21 71.40 1153.48 77.75
  C 1156.12 91.08 1156.06 106.10 1156.49 119.76
  Q 1157.16 141.08 1154.59 160.72
  C 1152.77 174.71 1146.23 192.51 1132.23 198.51
  A 0.75 0.74 -39.9 0 0 1132.11 199.82
  L 1140.21 205.07
  L 1147.01 211.88
  Q 1148.23 215.57 1149.77 218.99
  C 1151.80 223.53 1152.69 226.79 1153.26 231.27
  Q 1155.21 246.58 1155.35 260.00
  Q 1155.76 297.18 1155.89 319.77
  Q 1155.92 324.12 1158.02 341.91
  A 0.95 0.76 38.6 0 0 1158.07 342.13
  L 1159.16 345.72
  A 0.75 0.75 0.0 0 1 1158.44 346.69
  Q 1146.33 346.65 1136.05 346.62
  Q 1135.87 346.62 1127.47 347.09
  Q 1123.01 347.34 1118.93 346.48
  L 1115.22 346.33
  A 1.19 1.18 -3.6 0 1 1114.10 345.35
  Q 1111.45 329.36 1111.23 313.25
  C 1110.96 293.81 1111.55 268.81 1110.67 245.00
  Q 1110.28 234.68 1107.19 228.00
  Q 1105.32 225.51 1103.04 223.62
  C 1099.08 220.35 1093.88 220.27 1089.05 220.06
  A 0.43 0.42 -88.0 0 0 1088.61 220.48
  Q 1088.33 260.41 1088.54 317.53
  C 1088.57 326.23 1088.04 334.29 1088.54 343.40
  Q 1088.65 345.40 1087.67 346.49
  A 1.21 1.19 -69.4 0 1 1086.80 346.89
  Q 1083.32 347.00 1056.63 346.59
  Q 1049.75 346.49 1044.27 344.38
  L 1044.40 32.56
  A 0.75 0.74 0.0 0 1 1045.15 31.82
  Q 1071.31 31.83 1096.75 31.76
  Q 1106.64 31.74 1113.73 32.65
  Q 1124.40 34.01 1132.34 39.31
  Z
  M 1096.94 183.04
  C 1105.85 182.65 1108.65 176.01 1109.67 168.44
  Q 1110.70 160.74 1110.87 153.63
  C 1111.36 133.25 1111.57 112.00 1110.41 91.39
  Q 1110.29 89.27 1109.47 85.16
  Q 1108.90 82.33 1108.29 78.93
  Q 1107.13 75.04 1101.59 71.71
  C 1097.80 69.43 1094.65 69.68 1090.00 69.29
  A 1.70 1.69 1.7 0 0 1088.16 71.02
  C 1088.89 99.84 1088.51 128.02 1088.42 182.32
  A 1.10 1.09 88.5 0 0 1089.57 183.42
  L 1096.94 183.04
  Z"
/>
<path d="
  M 670.00 115.64
  Q 669.62 131.93 669.60 148.50
  Q 669.42 300.12 669.70 331.64
  Q 669.79 341.48 669.98 345.79
  A 1.13 1.13 0.0 0 1 668.83 346.98
  L 631.89 346.61
  L 626.10 346.61
  A 0.89 0.89 0.0 0 1 625.21 345.72
  L 625.21 109.63
  A 0.92 0.92 0.0 0 1 626.13 108.71
  L 668.68 108.71
  A 0.85 0.85 0.0 0 1 669.52 109.68
  Q 669.05 112.77 670.00 115.64
  Z"
/>
<rect x="25.57" y="368.36" width="1144.86" height="38.24" rx="0.72"/>
</g>
<path fill="#f6c645" d="
  M 675.82 38.82
  L 675.58 87.78
  A 0.82 0.81 -89.6 0 1 674.77 88.59
  L 626.84 88.61
  L 620.04 88.50
  A 0.77 0.77 0.0 0 1 619.28 87.73
  L 619.28 32.32
  A 0.69 0.69 0.0 0 1 619.97 31.63
  L 674.88 31.63
  A 0.71 0.70 88.7 0 1 675.58 32.31
  L 675.82 38.82
  Z"
/>
<g fill="#000000">
<path d="
  M 53.55 346.77
  Q 66.53 347.30 70.00 347.12
  Q 79.48 346.63 89.50 346.79
  A 1.06 1.06 0.0 0 0 90.58 345.73
  L 90.58 237.76
  A 0.94 0.93 2.5 0 1 91.60 236.83
  Q 107.39 238.19 122.28 234.27
  Q 133.90 231.21 141.52 223.00
  Q 143.84 220.51 146.59 214.60
  Q 149.48 208.38 152.36 201.61
  Q 154.28 197.11 155.13 190.94
  C 158.58 165.93 159.08 140.32 157.93 112.62
  C 157.35 98.48 155.23 84.39 154.33 71.50
  A 3.01 2.81 -57.0 0 0 154.21 70.82
  Q 151.32 60.81 145.82 51.81
  A 4.40 4.39 -82.8 0 0 145.21 51.02
  Q 141.77 47.39 137.79 43.23
  Q 135.73 41.07 132.54 39.21
  Q 130.51 38.03 126.45 36.63
  Q 122.34 35.23 118.52 33.22
  Q 129.85 35.20 138.37 42.65
  Q 143.10 46.79 145.94 49.44
  C 160.20 62.73 163.09 87.18 164.18 106.01
  Q 166.25 141.63 164.41 174.98
  Q 163.94 183.47 161.54 198.01
  C 157.61 221.73 144.83 241.23 118.95 243.41
  Q 108.76 244.27 98.19 243.78
  A 0.54 0.54 0.0 0 0 97.62 244.32
  L 97.62 353.12
  A 0.58 0.58 0.0 0 1 97.04 353.70
  L 54.34 353.70
  A 0.72 0.72 0.0 0 1 53.62 352.99
  L 53.55 346.77
  Z"
/>
<path d="
  M 576.03 174.29
  Q 572.90 173.47 570.25 173.85
  A 1.18 1.17 -4.0 0 1 568.91 172.69
  Q 568.81 105.97 568.66 94.10
  C 568.61 90.73 568.19 83.91 568.59 79.37
  Q 568.98 74.97 568.85 71.61
  A 0.63 0.63 0.0 0 1 569.48 70.96
  L 607.51 70.96
  A 1.30 1.29 0.2 0 0 608.81 69.68
  L 609.19 38.41
  L 615.18 38.47
  A 1.19 1.18 0.2 0 1 616.36 39.65
  L 616.36 76.65
  A 0.93 0.93 0.0 0 1 615.43 77.58
  L 576.34 77.58
  A 0.44 0.44 0.0 0 0 575.90 78.02
  L 576.03 174.29
  Z"
/>
<path d="
  M 238.88 346.84
  Q 243.01 347.40 247.42 347.39
  Q 262.90 347.35 278.81 347.37
  A 1.07 1.07 0.0 0 0 279.88 346.34
  Q 280.03 342.17 279.05 338.08
  A 7.31 7.30 -53.1 0 1 278.85 336.66
  C 278.25 325.05 276.32 313.20 275.28 302.93
  Q 271.05 261.04 270.43 255.78
  Q 267.86 233.99 266.83 221.08
  C 265.71 206.98 263.42 190.32 261.97 175.78
  Q 259.97 155.61 256.70 125.06
  C 255.85 117.15 255.68 108.41 254.53 100.71
  C 253.34 92.69 252.25 86.51 251.90 78.49
  Q 251.25 63.66 248.96 48.98
  C 248.48 45.86 248.38 42.00 247.83 38.53
  L 253.46 38.54
  A 1.02 1.01 -2.9 0 1 254.46 39.44
  L 287.17 353.34
  A 0.32 0.31 -3.2 0 1 286.85 353.69
  L 241.20 353.69
  A 1.33 1.33 0.0 0 1 239.89 352.60
  L 238.88 346.84
  Z"
/>
<path d="
  M 310.48 346.86
  Q 315.20 347.56 318.17 347.46
  Q 336.03 346.87 346.98 346.71
  A 0.97 0.97 0.0 0 0 347.94 345.74
  L 347.94 71.11
  A 0.34 0.34 0.0 0 1 348.27 70.77
  Q 363.52 70.34 379.04 71.33
  A 1.37 1.37 0.0 0 0 380.49 69.85
  Q 379.21 54.39 380.62 38.63
  L 386.24 38.60
  A 1.07 1.06 89.7 0 1 387.31 39.67
  L 387.31 76.59
  A 0.97 0.97 0.0 0 1 386.34 77.56
  L 355.61 77.56
  A 0.54 0.53 0.0 0 0 355.07 78.09
  L 355.07 353.18
  A 0.52 0.51 90.0 0 1 354.56 353.70
  L 311.18 353.70
  A 0.71 0.71 0.0 0 1 310.47 352.99
  L 310.48 346.86
  Z"
/>
<path d="
  M 444.80 166.86
  L 437.62 166.35
  A 0.92 0.91 -88.0 0 1 436.77 165.43
  L 437.03 38.79
  L 442.78 38.67
  A 0.79 0.79 0.0 0 1 443.59 39.46
  Q 443.57 102.50 443.63 165.79
  Q 443.63 166.38 443.91 166.62
  Q 444.24 166.91 444.80 166.86
  Z"
/>
<path d="
  M 465.72 346.85
  C 467.76 347.14 470.26 347.46 472.22 347.35
  Q 487.84 346.45 502.69 346.64
  A 0.68 0.68 0.0 0 0 503.38 345.96
  L 503.61 38.67
  L 509.61 38.66
  A 1.00 1.00 0.0 0 1 510.61 39.66
  L 510.61 353.23
  A 0.48 0.48 0.0 0 1 510.13 353.71
  L 466.45 353.71
  A 0.72 0.72 0.0 0 1 465.73 352.99
  L 465.72 346.85
  Z"
/>
<path d="
  M 765.26 203.32
  L 766.94 230.98
  A 0.42 0.38 65.1 0 1 766.87 231.21
  Q 766.72 231.41 766.71 231.42
  A 1.00 1.00 0.0 0 1 765.24 231.12
  Q 764.03 229.05 763.42 226.04
  Q 761.43 216.20 760.10 205.09
  A 19.92 19.73 34.4 0 0 759.54 202.17
  Q 756.53 191.12 756.32 187.70
  Q 755.77 178.53 753.89 170.82
  C 751.98 162.96 751.18 156.99 751.08 150.76
  Q 751.03 147.69 749.55 141.41
  Q 746.75 129.58 746.26 125.06
  Q 745.38 116.98 744.01 107.75
  C 743.25 102.67 740.32 92.59 739.66 85.08
  C 739.11 78.73 738.17 71.73 736.42 63.91
  Q 734.42 54.96 734.14 51.63
  Q 733.40 42.91 732.19 38.51
  L 737.57 38.55
  A 0.72 0.71 85.2 0 1 738.27 39.15
  L 765.26 203.32
  Z"
/>
<path d="
  M 764.75 346.83
  Q 767.97 347.33 769.56 347.32
  Q 786.95 347.17 798.00 346.66
  A 1.81 1.80 88.7 0 0 799.72 344.85
  L 800.27 38.68
  L 806.21 38.66
  A 0.91 0.91 0.0 0 1 807.13 39.57
  L 807.13 352.91
  A 0.81 0.80 -0.0 0 1 806.32 353.71
  L 767.39 353.71
  A 1.15 1.14 -7.2 0 1 766.28 352.85
  L 764.75 346.83
  Z"
/>
<path d="
  M 996.36 170.18
  Q 993.28 169.39 990.11 169.62
  A 1.13 1.12 -1.9 0 1 988.91 168.50
  L 988.91 71.60
  A 0.78 0.78 0.0 0 1 989.69 70.82
  L 1027.17 70.82
  A 1.58 1.57 -89.6 0 0 1028.74 69.26
  L 1029.12 38.61
  L 1035.37 38.63
  A 0.73 0.73 0.0 0 1 1036.10 39.36
  L 1036.10 76.49
  A 1.06 1.06 0.0 0 1 1035.04 77.55
  L 996.76 77.55
  A 0.45 0.44 0.0 0 0 996.31 77.99
  L 996.36 170.18
  Z"
/>
<path d="
  M 626.84 88.61
  L 674.77 88.59
  A 0.82 0.81 -89.6 0 0 675.58 87.78
  L 675.82 38.82
  L 681.92 38.78
  A 0.70 0.69 -0.0 0 1 682.62 39.47
  L 682.62 94.99
  A 0.64 0.64 0.0 0 1 681.98 95.63
  L 627.57 95.63
  A 0.86 0.85 -89.7 0 1 626.72 94.76
  L 626.84 88.61
  Z"
/>
<path d="
  M 1132.34 39.31
  Q 1139.44 44.42 1145.01 50.25
  C 1160.18 66.16 1162.33 88.90 1163.27 110.00
  Q 1164.06 127.42 1163.55 146.75
  C 1163.15 162.26 1161.18 178.88 1153.33 192.07
  Q 1148.80 199.69 1140.21 205.07
  L 1132.11 199.82
  A 0.75 0.74 -39.9 0 1 1132.23 198.51
  C 1146.23 192.51 1152.77 174.71 1154.59 160.72
  Q 1157.16 141.08 1156.49 119.76
  C 1156.06 106.10 1156.12 91.08 1153.48 77.75
  Q 1152.21 71.40 1152.16 70.47
  C 1151.92 66.35 1150.23 61.54 1148.68 58.08
  Q 1146.88 54.04 1143.49 51.29
  Q 1137.17 46.14 1132.34 39.31
  Z"
/>
<path d="
  M 827.84 346.80
  Q 832.75 347.69 840.99 347.35
  Q 857.90 346.65 880.99 346.22
  Q 890.81 346.04 900.12 341.60
  Q 905.45 339.06 910.25 333.53
  C 916.54 326.28 921.90 318.04 924.14 308.63
  Q 929.46 286.32 929.92 263.34
  C 930.09 254.91 930.69 246.35 930.81 240.00
  Q 931.39 207.06 931.52 175.25
  Q 931.63 147.05 930.09 120.50
  Q 929.87 116.69 929.83 108.01
  C 929.80 101.01 928.73 93.93 928.01 87.07
  A 8.80 8.54 34.1 0 0 927.66 85.38
  Q 923.05 70.70 921.81 54.94
  Q 929.63 67.30 932.52 82.24
  Q 935.08 95.49 936.24 109.50
  Q 937.88 129.12 938.25 148.50
  Q 939.42 209.40 937.04 269.25
  C 936.27 288.59 934.26 310.45 926.24 327.67
  C 917.84 345.71 901.91 353.46 882.49 353.68
  Q 876.36 353.75 828.59 353.68
  A 0.70 0.70 0.0 0 1 827.89 352.98
  L 827.84 346.80
  Z"
/>
<path d="
  M 881.04 77.51
  Q 876.53 75.84 871.87 76.61
  A 0.47 0.46 85.7 0 0 871.48 77.07
  Q 871.46 191.75 871.44 306.50
  Q 871.44 307.63 872.24 308.13
  Q 868.71 309.03 865.22 308.10
  A 1.75 1.74 -82.0 0 1 863.92 306.37
  Q 864.39 285.08 864.36 265.29
  C 864.26 211.63 864.52 190.47 864.28 139.81
  Q 864.12 106.46 864.68 80.92
  C 864.75 77.43 864.33 73.72 864.11 70.48
  A 0.99 0.99 0.0 0 1 865.08 69.42
  Q 875.24 69.20 881.04 77.51
  Z"
/>
<path d="
  M 1108.29 78.93
  Q 1104.58 75.01 1096.22 76.48
  A 0.61 0.61 0.0 0 0 1095.72 77.08
  L 1095.85 182.76
  A 0.21 0.19 24.2 0 0 1095.91 182.90
  Q 1096.36 183.30 1096.94 183.04
  L 1089.57 183.42
  A 1.10 1.09 88.5 0 1 1088.42 182.32
  C 1088.51 128.02 1088.89 99.84 1088.16 71.02
  A 1.70 1.69 1.7 0 1 1090.00 69.29
  C 1094.65 69.68 1097.80 69.43 1101.59 71.71
  Q 1107.13 75.04 1108.29 78.93
  Z"
/>
<path d="
  M 109.24 78.85
  Q 105.37 75.09 98.20 76.62
  A 0.62 0.62 0.0 0 0 97.70 77.23
  L 97.60 198.29
  L 91.58 198.21
  A 1.07 1.07 0.0 0 1 90.53 197.14
  L 90.53 70.53
  A 0.91 0.90 0.9 0 1 91.47 69.63
  C 98.24 69.86 102.66 69.60 107.66 75.34
  Q 109.50 77.45 109.24 78.85
  Z"
/>
<path d="
  M 303.41 77.47
  L 279.47 77.55
  A 0.92 0.91 87.3 0 1 278.55 76.71
  L 278.05 70.61
  L 302.03 71.07
  A 1.07 1.07 0.0 0 1 303.07 72.27
  Q 302.75 74.91 303.41 77.47
  Z"
/>
<path d="
  M 215.01 120.25
  L 205.63 245.02
  A 0.54 0.52 -67.0 0 0 205.81 245.48
  Q 206.45 246.02 207.72 245.85
  Q 204.38 246.73 200.02 245.29
  A 1.68 1.68 0.0 0 1 198.87 243.63
  Q 199.09 237.55 199.78 232.73
  Q 200.81 225.46 201.77 218.17
  C 202.37 213.67 202.01 209.09 202.25 204.45
  Q 203.13 186.64 205.11 170.13
  C 205.69 165.31 205.64 162.30 205.67 157.95
  Q 205.69 155.30 206.03 153.08
  C 207.17 145.41 207.24 136.22 208.62 127.64
  C 209.23 123.80 208.98 119.10 209.46 113.54
  Q 210.65 99.64 211.20 93.49
  Q 211.30 92.40 211.52 92.25
  A 1.30 1.27 -18.4 0 1 213.52 93.22
  L 215.01 120.25
  Z"
/>
<path d="
  M 631.89 346.61
  L 668.83 346.98
  A 1.13 1.13 0.0 0 0 669.98 345.79
  Q 669.79 341.48 669.70 331.64
  Q 669.42 300.12 669.60 148.50
  Q 669.62 131.93 670.00 115.64
  L 676.29 115.56
  A 0.78 0.78 0.0 0 1 677.08 116.34
  L 677.08 353.08
  A 0.63 0.63 0.0 0 1 676.45 353.71
  L 632.67 353.71
  A 0.67 0.67 0.0 0 1 632.00 353.05
  L 631.89 346.61
  Z"
/>
<path d="
  M 729.07 177.00
  Q 728.27 178.46 728.40 181.50
  Q 729.91 218.40 731.18 243.38
  Q 732.50 269.35 732.54 290.15
  Q 732.58 317.56 732.59 353.19
  A 0.53 0.53 0.0 0 1 732.06 353.72
  L 696.63 353.72
  A 1.01 1.01 0.0 0 1 695.62 352.72
  L 695.56 346.77
  Q 696.69 347.32 697.51 347.35
  Q 703.36 347.53 709.04 346.98
  C 715.09 346.41 717.91 346.58 724.55 346.63
  A 0.99 0.98 2.9 0 0 725.53 345.75
  Q 725.87 342.28 725.85 339.00
  Q 725.61 302.93 725.83 267.75
  C 725.89 257.67 724.33 241.25 724.14 228.68
  C 724.02 221.02 722.58 208.04 722.82 197.86
  C 722.96 191.66 721.57 186.04 721.65 179.37
  Q 721.80 166.94 720.64 152.59
  A 1.17 1.17 0.0 0 1 722.23 151.41
  L 722.58 151.54
  A 2.64 2.64 0.0 0 1 724.21 153.47
  L 729.07 177.00
  Z"
/>
<path d="
  M 1022.91 176.21
  Q 1023.11 176.62 1023.50 176.62
  Q 1026.86 176.59 1029.55 176.63
  A 0.95 0.95 0.0 0 1 1030.49 177.58
  L 1030.49 215.42
  A 0.68 0.68 0.0 0 1 1029.81 216.10
  L 997.01 216.10
  A 0.87 0.86 -90.0 0 0 996.15 216.97
  L 996.25 307.75
  L 990.05 307.35
  A 1.09 1.08 -88.3 0 1 989.03 306.26
  L 989.03 210.35
  A 0.96 0.96 0.0 0 1 989.99 209.39
  L 1021.49 209.39
  A 1.48 1.48 0.0 0 0 1022.97 207.93
  Q 1023.20 191.78 1022.56 177.07
  Q 1022.54 176.74 1022.91 176.21
  Z"
/>
<path d="
  M 604.87 180.35
  L 611.65 180.72
  A 0.82 0.81 1.9 0 1 612.42 181.53
  L 612.42 219.56
  A 0.62 0.61 0.0 0 1 611.80 220.17
  L 576.32 220.17
  A 0.36 0.36 0.0 0 0 575.96 220.53
  L 575.96 353.11
  A 0.60 0.59 -0.0 0 1 575.36 353.70
  L 532.56 353.70
  A 0.94 0.94 0.0 0 1 531.62 352.76
  L 531.57 346.87
  L 567.67 346.76
  A 1.19 1.18 -0.2 0 0 568.85 345.58
  Q 568.99 309.41 568.80 279.98
  Q 568.69 261.21 568.80 254.01
  Q 569.07 236.46 568.64 228.06
  C 568.41 223.64 569.11 219.00 568.95 214.28
  A 0.86 0.86 0.0 0 1 569.81 213.39
  L 603.60 213.39
  A 1.66 1.66 0.0 0 0 605.26 211.74
  L 605.38 185.14
  A 2.56 1.99 81.9 0 0 605.36 184.78
  L 604.87 180.35
  Z"
/>
<path d="
  M 458.53 212.64
  L 444.05 212.44
  A 0.41 0.41 0.0 0 0 443.63 212.85
  L 443.63 353.10
  A 0.60 0.60 0.0 0 1 443.03 353.70
  L 400.37 353.70
  A 0.95 0.95 0.0 0 1 399.42 352.76
  L 399.35 346.84
  Q 402.60 347.68 405.25 347.39
  Q 420.36 345.72 435.68 346.80
  A 0.92 0.91 -88.0 0 0 436.66 345.88
  L 436.66 206.48
  A 1.18 1.17 0.0 0 1 437.84 205.31
  L 456.70 205.31
  A 1.72 1.72 0.0 0 1 458.38 206.67
  Q 459.22 210.64 458.53 212.64
  Z"
/>
<path d="
  M 1118.93 346.48
  Q 1123.01 347.34 1127.47 347.09
  Q 1135.87 346.62 1136.05 346.62
  Q 1146.33 346.65 1158.44 346.69
  A 0.75 0.75 0.0 0 0 1159.16 345.72
  L 1158.07 342.13
  A 0.95 0.76 38.6 0 1 1158.02 341.91
  Q 1155.92 324.12 1155.89 319.77
  Q 1155.76 297.18 1155.35 260.00
  Q 1155.21 246.58 1153.26 231.27
  C 1152.69 226.79 1151.80 223.53 1149.77 218.99
  Q 1148.23 215.57 1147.01 211.88
  C 1158.88 220.38 1161.49 240.26 1162.03 253.29
  Q 1163.11 279.35 1163.11 316.75
  Q 1163.11 318.62 1163.74 332.75
  Q 1164.23 343.45 1166.34 353.14
  A 0.47 0.47 0.0 0 1 1165.88 353.71
  L 1122.28 353.71
  A 1.48 1.47 81.0 0 1 1120.88 352.68
  L 1118.93 346.48
  Z"
/>
<path d="
  M 1107.19 228.00
  Q 1101.65 226.50 1096.22 226.94
  A 0.50 0.50 0.0 0 0 1095.76 227.44
  L 1095.76 352.83
  A 0.88 0.88 0.0 0 1 1094.88 353.71
  L 1051.67 353.71
  A 0.74 0.74 0.0 0 1 1050.93 352.97
  L 1050.93 347.27
  A 0.69 0.68 -3.0 0 0 1050.17 346.59
  Q 1043.02 347.34 1044.27 344.38
  Q 1049.75 346.49 1056.63 346.59
  Q 1083.32 347.00 1086.80 346.89
  A 1.21 1.19 -69.4 0 0 1087.67 346.49
  Q 1088.65 345.40 1088.54 343.40
  C 1088.04 334.29 1088.57 326.23 1088.54 317.53
  Q 1088.33 260.41 1088.61 220.48
  A 0.43 0.42 -88.0 0 1 1089.05 220.06
  C 1093.88 220.27 1099.08 220.35 1103.04 223.62
  Q 1105.32 225.51 1107.19 228.00
  Z"
/>
<path d="
  M 945.60 256.96
  L 945.62 258.04
  L 945.60 256.96
  Z"
/>
<path d="
  M 227.83 289.45
  L 203.19 289.47
  A 0.36 0.36 0.0 0 0 202.83 289.80
  L 197.50 353.11
  A 0.65 0.65 0.0 0 1 196.85 353.71
  L 161.77 353.71
  A 0.82 0.82 0.0 0 1 160.95 352.92
  L 160.76 346.66
  Q 172.86 347.41 185.72 347.07
  Q 187.02 347.04 190.11 346.50
  A 0.75 0.73 -3.1 0 0 190.73 345.83
  L 196.01 283.17
  A 0.89 0.89 0.0 0 1 196.90 282.36
  L 226.23 282.36
  A 0.92 0.91 -3.2 0 1 227.14 283.17
  L 227.83 289.45
  Z"
/>
<path d="
  M 945.63 283.53
  L 945.60 290.24
  L 945.63 283.53
  Z"
/>
<path d="
  M 952.40 346.76
  L 1028.47 346.95
  A 1.12 1.11 -0.3 0 0 1029.59 345.83
  L 1029.13 313.58
  Q 1031.95 314.55 1035.66 314.09
  A 0.64 0.64 0.0 0 1 1036.38 314.72
  L 1036.38 353.18
  A 0.53 0.53 0.0 0 1 1035.85 353.71
  L 953.31 353.71
  A 0.85 0.85 0.0 0 1 952.46 352.86
  L 952.40 346.76
  Z"
/>
<path d="
  M 235.04 346.63
  L 234.04 346.60
  L 235.04 346.63
  Z"
/>
<path d="
  M 236.71 346.56
  L 235.52 346.63
  L 236.71 346.56
  Z"
/>
<path d="
  M 396.71 346.63
  L 393.28 346.57
  L 396.71 346.63
  Z"
/>
<path d="
  M 692.04 346.64
  L 691.05 346.59
  L 692.04 346.64
  Z"
/>
<path d="
  M 695.00 346.63
  L 692.77 346.64
  L 695.00 346.63
  Z"
/>
</g>
</svg>
